<?xml version="1.0" standalone="no"?>
<svg xmlns:xlink="http://www.w3.org/1999/xlink" id="wave" style="transform:rotate(0deg); transition: 0.3s" viewBox="0 0 1440 140" version="1.1" xmlns="http://www.w3.org/2000/svg"><defs><linearGradient id="sw-gradient-0" x1="0" x2="0" y1="1" y2="0"><stop stop-color="rgba(255, 247, 5, 1)" offset="0%"/><stop stop-color="rgba(1, 26, 69, 1)" offset="100%"/></linearGradient></defs><path style="transform:translate(0, 0px); opacity:1" fill="url(#sw-gradient-0)" d="M0,84L30,84C60,84,120,84,180,74.7C240,65,300,47,360,53.7C420,61,480,93,540,88.7C600,84,660,42,720,35C780,28,840,56,900,70C960,84,1020,84,1080,74.7C1140,65,1200,47,1260,35C1320,23,1380,19,1440,21C1500,23,1560,33,1620,39.7C1680,47,1740,51,1800,44.3C1860,37,1920,19,1980,25.7C2040,33,2100,65,2160,84C2220,103,2280,107,2340,107.3C2400,107,2460,103,2520,102.7C2580,103,2640,107,2700,112C2760,117,2820,121,2880,112C2940,103,3000,79,3060,77C3120,75,3180,93,3240,105C3300,117,3360,121,3420,107.3C3480,93,3540,61,3600,51.3C3660,42,3720,56,3780,60.7C3840,65,3900,61,3960,51.3C4020,42,4080,28,4140,35C4200,42,4260,70,4290,84L4320,98L4320,140L4290,140C4260,140,4200,140,4140,140C4080,140,4020,140,3960,140C3900,140,3840,140,3780,140C3720,140,3660,140,3600,140C3540,140,3480,140,3420,140C3360,140,3300,140,3240,140C3180,140,3120,140,3060,140C3000,140,2940,140,2880,140C2820,140,2760,140,2700,140C2640,140,2580,140,2520,140C2460,140,2400,140,2340,140C2280,140,2220,140,2160,140C2100,140,2040,140,1980,140C1920,140,1860,140,1800,140C1740,140,1680,140,1620,140C1560,140,1500,140,1440,140C1380,140,1320,140,1260,140C1200,140,1140,140,1080,140C1020,140,960,140,900,140C840,140,780,140,720,140C660,140,600,140,540,140C480,140,420,140,360,140C300,140,240,140,180,140C120,140,60,140,30,140L0,140Z"/><defs><linearGradient id="sw-gradient-1" x1="0" x2="0" y1="1" y2="0"><stop stop-color="rgba(1, 26, 69, 1)" offset="0%"/><stop stop-color="rgba(255, 247, 5, 1)" offset="100%"/></linearGradient></defs><path style="transform:translate(0, 50px); opacity:0.9" fill="url(#sw-gradient-1)" d="M0,70L30,60.7C60,51,120,33,180,21C240,9,300,5,360,18.7C420,33,480,65,540,65.3C600,65,660,33,720,28C780,23,840,47,900,58.3C960,70,1020,70,1080,63C1140,56,1200,42,1260,51.3C1320,61,1380,93,1440,109.7C1500,126,1560,126,1620,112C1680,98,1740,70,1800,60.7C1860,51,1920,61,1980,74.7C2040,89,2100,107,2160,102.7C2220,98,2280,70,2340,67.7C2400,65,2460,89,2520,100.3C2580,112,2640,112,2700,95.7C2760,79,2820,47,2880,35C2940,23,3000,33,3060,42C3120,51,3180,61,3240,53.7C3300,47,3360,23,3420,14C3480,5,3540,9,3600,21C3660,33,3720,51,3780,60.7C3840,70,3900,70,3960,70C4020,70,4080,70,4140,79.3C4200,89,4260,107,4290,116.7L4320,126L4320,140L4290,140C4260,140,4200,140,4140,140C4080,140,4020,140,3960,140C3900,140,3840,140,3780,140C3720,140,3660,140,3600,140C3540,140,3480,140,3420,140C3360,140,3300,140,3240,140C3180,140,3120,140,3060,140C3000,140,2940,140,2880,140C2820,140,2760,140,2700,140C2640,140,2580,140,2520,140C2460,140,2400,140,2340,140C2280,140,2220,140,2160,140C2100,140,2040,140,1980,140C1920,140,1860,140,1800,140C1740,140,1680,140,1620,140C1560,140,1500,140,1440,140C1380,140,1320,140,1260,140C1200,140,1140,140,1080,140C1020,140,960,140,900,140C840,140,780,140,720,140C660,140,600,140,540,140C480,140,420,140,360,140C300,140,240,140,180,140C120,140,60,140,30,140L0,140Z"/><defs><linearGradient id="sw-gradient-2" x1="0" x2="0" y1="1" y2="0"><stop stop-color="rgba(255, 247, 5, 1)" offset="0%"/><stop stop-color="rgba(1, 26, 69, 1)" offset="100%"/></linearGradient></defs><path style="transform:translate(0, 100px); opacity:0.8" fill="url(#sw-gradient-2)" d="M0,0L30,18.7C60,37,120,75,180,84C240,93,300,75,360,77C420,79,480,103,540,102.7C600,103,660,79,720,70C780,61,840,65,900,72.3C960,79,1020,89,1080,91C1140,93,1200,89,1260,72.3C1320,56,1380,28,1440,14C1500,0,1560,0,1620,7C1680,14,1740,28,1800,37.3C1860,47,1920,51,1980,60.7C2040,70,2100,84,2160,95.7C2220,107,2280,117,2340,116.7C2400,117,2460,107,2520,105C2580,103,2640,107,2700,109.7C2760,112,2820,112,2880,98C2940,84,3000,56,3060,37.3C3120,19,3180,9,3240,23.3C3300,37,3360,75,3420,74.7C3480,75,3540,37,3600,39.7C3660,42,3720,84,3780,100.3C3840,117,3900,107,3960,91C4020,75,4080,51,4140,56C4200,61,4260,93,4290,109.7L4320,126L4320,140L4290,140C4260,140,4200,140,4140,140C4080,140,4020,140,3960,140C3900,140,3840,140,3780,140C3720,140,3660,140,3600,140C3540,140,3480,140,3420,140C3360,140,3300,140,3240,140C3180,140,3120,140,3060,140C3000,140,2940,140,2880,140C2820,140,2760,140,2700,140C2640,140,2580,140,2520,140C2460,140,2400,140,2340,140C2280,140,2220,140,2160,140C2100,140,2040,140,1980,140C1920,140,1860,140,1800,140C1740,140,1680,140,1620,140C1560,140,1500,140,1440,140C1380,140,1320,140,1260,140C1200,140,1140,140,1080,140C1020,140,960,140,900,140C840,140,780,140,720,140C660,140,600,140,540,140C480,140,420,140,360,140C300,140,240,140,180,140C120,140,60,140,30,140L0,140Z"/><defs><linearGradient id="sw-gradient-3" x1="0" x2="0" y1="1" y2="0"><stop stop-color="rgba(1, 26, 69, 1)" offset="0%"/><stop stop-color="rgba(255, 247, 5, 1)" offset="100%"/></linearGradient></defs><path style="transform:translate(0, 150px); opacity:0.7" fill="url(#sw-gradient-3)" d="M0,42L30,42C60,42,120,42,180,35C240,28,300,14,360,25.7C420,37,480,75,540,74.7C600,75,660,37,720,39.7C780,42,840,84,900,98C960,112,1020,98,1080,95.7C1140,93,1200,103,1260,98C1320,93,1380,75,1440,63C1500,51,1560,47,1620,39.7C1680,33,1740,23,1800,21C1860,19,1920,23,1980,39.7C2040,56,2100,84,2160,98C2220,112,2280,112,2340,95.7C2400,79,2460,47,2520,30.3C2580,14,2640,14,2700,32.7C2760,51,2820,89,2880,86.3C2940,84,3000,42,3060,30.3C3120,19,3180,37,3240,42C3300,47,3360,37,3420,42C3480,47,3540,65,3600,74.7C3660,84,3720,84,3780,86.3C3840,89,3900,93,3960,81.7C4020,70,4080,42,4140,46.7C4200,51,4260,89,4290,107.3L4320,126L4320,140L4290,140C4260,140,4200,140,4140,140C4080,140,4020,140,3960,140C3900,140,3840,140,3780,140C3720,140,3660,140,3600,140C3540,140,3480,140,3420,140C3360,140,3300,140,3240,140C3180,140,3120,140,3060,140C3000,140,2940,140,2880,140C2820,140,2760,140,2700,140C2640,140,2580,140,2520,140C2460,140,2400,140,2340,140C2280,140,2220,140,2160,140C2100,140,2040,140,1980,140C1920,140,1860,140,1800,140C1740,140,1680,140,1620,140C1560,140,1500,140,1440,140C1380,140,1320,140,1260,140C1200,140,1140,140,1080,140C1020,140,960,140,900,140C840,140,780,140,720,140C660,140,600,140,540,140C480,140,420,140,360,140C300,140,240,140,180,140C120,140,60,140,30,140L0,140Z"/></svg>